<?xml version="1.0" encoding="UTF-8"?>
<svg version="1.1" xmlns="http://www.w3.org/2000/svg" width="225" height="225">
<path d="M0 0 C74.25 0 148.5 0 225 0 C225 74.25 225 148.5 225 225 C150.75 225 76.5 225 0 225 C0 150.75 0 76.5 0 0 Z " fill="#009D57" transform="translate(0,0)"/>
<path d="M0 0 C7.73822378 0.77382238 11.69698611 1.2938927 18 4.8125 C19.38001 5.54190832 20.76152128 6.26848347 22.14453125 6.9921875 C23.13187256 7.51377441 23.13187256 7.51377441 24.13916016 8.04589844 C29.62625045 10.85927404 34.96367467 12.79273493 41 14 C41 24.89 41 35.78 41 47 C33.1285598 45.87550854 33.1285598 45.87550854 29.3359375 43.78515625 C28.52382812 43.34623047 27.71171875 42.90730469 26.875 42.45507812 C26.05 41.99552734 25.225 41.53597656 24.375 41.0625 C17.55663906 37.33140001 11.74815542 34.22956115 4 33 C0.87724878 81.59173531 0.87724878 81.59173531 18.87744141 125.06542969 C22.45691893 130.01428175 25.1711522 135.41228924 28 140.8125 C28.97641766 142.59135545 29.95527127 144.36887788 30.9375 146.14453125 C33 149.87700965 33 149.87700965 33 151 C22.11 151 11.22 151 0 151 C-2.70246123 143.71263795 -5.40448222 136.42511541 -8.10546875 129.13720703 C-9.02051503 126.66833871 -9.93594639 124.19961419 -10.8515625 121.73095703 C-16.62161332 106.17333097 -22.35473377 90.60337749 -28 75 C-28.04789169 75.80464691 -28.09578339 76.60929382 -28.14512634 77.43832397 C-28.5990167 85.05829429 -29.0548441 92.67814518 -29.51279354 100.29787254 C-29.74810614 104.21430751 -29.98269564 108.13078288 -30.21557617 112.04736328 C-30.44076305 115.83408712 -30.66792307 119.6206881 -30.89639473 123.40721512 C-30.98279218 124.844691 -31.06850415 126.28220827 -31.15348625 127.71976852 C-31.2735494 129.74868029 -31.39615305 131.77742493 -31.51928711 133.80615234 C-31.58812607 134.95642914 -31.65696503 136.10670593 -31.72789001 137.2918396 C-32.06373567 141.86855354 -32.54337546 146.43375462 -33 151 C-52.14 151 -71.28 151 -91 151 C-89.39105235 146.17315706 -87.55898331 141.92717228 -85.21875 137.4609375 C-84.84871353 136.7458905 -84.47867706 136.03084351 -84.09742737 135.29412842 C-82.90207837 132.98576269 -81.70102554 130.68041649 -80.5 128.375 C-78.86126689 125.21458325 -77.22550301 122.05263346 -75.58984375 118.890625 C-75.18946396 118.11756012 -74.78908417 117.34449524 -74.37657166 116.54800415 C-70.81315722 109.65988039 -67.32991906 102.73356754 -63.90625 95.77490234 C-62.08025687 92.07996145 -60.18873239 88.49922734 -58 85 C-60.31 85 -62.62 85 -65 85 C-69.29 73.45 -73.58 61.9 -78 50 C-78.82477278 54.12386389 -79.26853917 57.87378034 -79.53515625 62.05078125 C-79.65322632 63.85929565 -79.65322632 63.85929565 -79.77368164 65.7043457 C-79.8689917 67.22503662 -79.96430176 68.74572754 -80.0625 70.3125 C-80.371875 75.159375 -80.68125 80.00625 -81 85 C-90.9 85 -100.8 85 -111 85 C-109.85917969 82.71964844 -108.71835938 80.43929687 -107.54296875 78.08984375 C-104.94117231 72.887934 -102.3432864 67.68410575 -99.75149536 62.47720337 C-98.30480454 59.57122183 -96.85644692 56.66607243 -95.40795898 53.76098633 C-94.67158197 52.28314478 -93.93591617 50.80494865 -93.20092773 49.32641602 C-89.28852544 41.45769055 -85.36253266 33.63228101 -81 26 C-77.40561104 29.1971775 -75.27855962 32.78067694 -73.1015625 37.00390625 C-72.5653981 38.02169411 -72.5653981 38.02169411 -72.0184021 39.06004333 C-70.880292 41.2239535 -69.75238426 43.39298569 -68.625 45.5625 C-67.50565333 47.69976466 -66.38423279 49.83593177 -65.26263428 51.97201538 C-64.53446119 53.36025337 -63.80775847 54.74926367 -63.08258057 56.1390686 C-60.47419356 61.13189476 -57.77663037 66.0694561 -55.00927734 70.97631836 C-54 73 -54 73 -54 75 C-53.34 75 -52.68 75 -52 75 C-51.74476562 74.16428467 -51.48953125 73.32856934 -51.2265625 72.4675293 C-49.88072067 68.66279373 -48.19164572 65.11366801 -46.375 61.51953125 C-46.02743652 60.82486252 -45.67987305 60.13019379 -45.32177734 59.41447449 C-44.59076619 57.95545772 -43.85782351 56.49740726 -43.12304688 55.0402832 C-41.99926985 52.81105161 -40.88198035 50.57865907 -39.765625 48.34570312 C-39.05246135 46.92428944 -38.33893232 45.50305901 -37.625 44.08203125 C-37.29161621 43.4163765 -36.95823242 42.75072174 -36.61474609 42.06489563 C-35.19648146 39.25720787 -33.74767059 36.62150589 -32 34 C-31.34 34 -30.68 34 -30 34 C-29.56768066 34.81452637 -29.13536133 35.62905273 -28.68994141 36.46826172 C-15.28253838 61.97830144 -15.28253838 61.97830144 -1 87 C-0.67 58.29 -0.34 29.58 0 0 Z " fill="#FBFDFC" transform="translate(142,41)"/>
<path d="M0 0 C1.9451 2.91765 2.45276317 4.62537285 3 8 C2.01 8.495 2.01 8.495 1 9 C0.34444881 11.52733235 0.34444881 11.52733235 0 14 C-0.33 14 -0.66 14 -1 14 C-0.67 9.38 -0.34 4.76 0 0 Z " fill="#1EA25F" transform="translate(63,88)"/>
</svg>
